<mxfile host="app.diagrams.net" modified="2024-01-13T09:05:46.951Z" agent="Mozilla/5.0 (Macintosh; Intel Mac OS X 10_15_7) AppleWebKit/537.36 (KHTML, like Gecko) Chrome/120.0.0.0 Safari/537.36" etag="oZws4fVtTo2hgsDQiAI7" version="22.1.18" type="github">
  <diagram id="kP-WApDtpRvp6NtTZGy2" name="第 1 页">
    <mxGraphModel dx="540" dy="301" grid="1" gridSize="10" guides="1" tooltips="1" connect="1" arrows="1" fold="1" page="1" pageScale="1" pageWidth="827" pageHeight="1169" math="0" shadow="0">
      <root>
        <mxCell id="0" />
        <mxCell id="1" parent="0" />
        <mxCell id="kpVw8w48rec5jtllySkK-1" value="系统能力图" style="rounded=0;whiteSpace=wrap;html=1;" parent="1" vertex="1">
          <mxGeometry x="90" y="250" width="880" height="70" as="geometry" />
        </mxCell>
        <mxCell id="kpVw8w48rec5jtllySkK-2" value="" style="rounded=0;whiteSpace=wrap;html=1;" parent="1" vertex="1">
          <mxGeometry x="90" y="330" width="770" height="70" as="geometry" />
        </mxCell>
        <mxCell id="kpVw8w48rec5jtllySkK-3" value="对外接入层" style="text;html=1;strokeColor=none;fillColor=none;align=center;verticalAlign=middle;whiteSpace=wrap;rounded=0;" parent="1" vertex="1">
          <mxGeometry x="100" y="345" width="70" height="35" as="geometry" />
        </mxCell>
        <mxCell id="kpVw8w48rec5jtllySkK-6" value="营收活动" style="rounded=0;whiteSpace=wrap;html=1;fillColor=#ffe6cc;strokeColor=#d79b00;" parent="1" vertex="1">
          <mxGeometry x="540" y="340" width="150" height="50" as="geometry" />
        </mxCell>
        <mxCell id="kpVw8w48rec5jtllySkK-7" value="" style="rounded=0;whiteSpace=wrap;html=1;" parent="1" vertex="1">
          <mxGeometry x="90" y="504.5" width="770" height="515" as="geometry" />
        </mxCell>
        <mxCell id="kpVw8w48rec5jtllySkK-9" value="业务层" style="text;html=1;strokeColor=none;fillColor=none;align=center;verticalAlign=middle;whiteSpace=wrap;rounded=0;" parent="1" vertex="1">
          <mxGeometry x="105" y="672" width="60" height="30" as="geometry" />
        </mxCell>
        <mxCell id="kpVw8w48rec5jtllySkK-33" value="" style="rounded=0;whiteSpace=wrap;html=1;" parent="1" vertex="1">
          <mxGeometry x="870" y="330" width="100" height="920" as="geometry" />
        </mxCell>
        <mxCell id="kpVw8w48rec5jtllySkK-34" value="公共组件" style="text;html=1;strokeColor=none;fillColor=none;align=center;verticalAlign=middle;whiteSpace=wrap;rounded=0;" parent="1" vertex="1">
          <mxGeometry x="890" y="337" width="60" height="30" as="geometry" />
        </mxCell>
        <mxCell id="kpVw8w48rec5jtllySkK-43" value="" style="rounded=0;whiteSpace=wrap;html=1;" parent="1" vertex="1">
          <mxGeometry x="90" y="1050" width="770" height="100" as="geometry" />
        </mxCell>
        <mxCell id="kpVw8w48rec5jtllySkK-44" value="下游依赖" style="text;html=1;strokeColor=none;fillColor=none;align=center;verticalAlign=middle;whiteSpace=wrap;rounded=0;" parent="1" vertex="1">
          <mxGeometry x="105" y="1085" width="60" height="30" as="geometry" />
        </mxCell>
        <mxCell id="kpVw8w48rec5jtllySkK-45" value="基础服务" style="rounded=0;whiteSpace=wrap;html=1;fillColor=#e1d5e7;strokeColor=#9673a6;" parent="1" vertex="1">
          <mxGeometry x="226" y="1085" width="100" height="37" as="geometry" />
        </mxCell>
        <mxCell id="kpVw8w48rec5jtllySkK-46" value="货币服务" style="rounded=0;whiteSpace=wrap;html=1;fillColor=#e1d5e7;strokeColor=#9673a6;" parent="1" vertex="1">
          <mxGeometry x="470" y="1085" width="100" height="37" as="geometry" />
        </mxCell>
        <mxCell id="kpVw8w48rec5jtllySkK-48" value="安全服务" style="rounded=0;whiteSpace=wrap;html=1;fillColor=#e1d5e7;strokeColor=#9673a6;" parent="1" vertex="1">
          <mxGeometry x="685" y="1085" width="100" height="37" as="geometry" />
        </mxCell>
        <mxCell id="kpVw8w48rec5jtllySkK-49" value="" style="rounded=0;whiteSpace=wrap;html=1;" parent="1" vertex="1">
          <mxGeometry x="90" y="1169" width="770" height="80" as="geometry" />
        </mxCell>
        <mxCell id="kpVw8w48rec5jtllySkK-50" value="基础资源" style="text;html=1;strokeColor=none;fillColor=none;align=center;verticalAlign=middle;whiteSpace=wrap;rounded=0;" parent="1" vertex="1">
          <mxGeometry x="105" y="1194" width="60" height="30" as="geometry" />
        </mxCell>
        <mxCell id="kpVw8w48rec5jtllySkK-51" value="k8s" style="rounded=0;whiteSpace=wrap;html=1;fillColor=#1ba1e2;strokeColor=#006EAF;fontColor=#ffffff;" parent="1" vertex="1">
          <mxGeometry x="250" y="1194" width="100" height="37" as="geometry" />
        </mxCell>
        <mxCell id="kpVw8w48rec5jtllySkK-52" value="myshard" style="rounded=0;whiteSpace=wrap;html=1;fillColor=#1ba1e2;strokeColor=#006EAF;fontColor=#ffffff;" parent="1" vertex="1">
          <mxGeometry x="440" y="1193.5" width="100" height="37.5" as="geometry" />
        </mxCell>
        <mxCell id="kpVw8w48rec5jtllySkK-53" value="codis" style="rounded=0;whiteSpace=wrap;html=1;fillColor=#1ba1e2;strokeColor=#006EAF;fontColor=#ffffff;" parent="1" vertex="1">
          <mxGeometry x="600" y="1194" width="100" height="37.5" as="geometry" />
        </mxCell>
        <mxCell id="g8VQBxRtrbRmx6s4JdtM-1" value="权限控制" style="rounded=0;whiteSpace=wrap;html=1;fillColor=#dae8fc;strokeColor=#6c8ebf;" parent="1" vertex="1">
          <mxGeometry x="885" y="387" width="70" height="50" as="geometry" />
        </mxCell>
        <mxCell id="EJtgx4ozu5CaRGJBaJ_n-10" value="日志监控" style="rounded=0;whiteSpace=wrap;html=1;fillColor=#dae8fc;strokeColor=#6c8ebf;" parent="1" vertex="1">
          <mxGeometry x="885" y="472" width="70" height="50" as="geometry" />
        </mxCell>
        <mxCell id="EJtgx4ozu5CaRGJBaJ_n-12" value="xxl-job" style="rounded=0;whiteSpace=wrap;html=1;fillColor=#dae8fc;strokeColor=#6c8ebf;" parent="1" vertex="1">
          <mxGeometry x="885" y="557" width="70" height="50" as="geometry" />
        </mxCell>
        <mxCell id="EJtgx4ozu5CaRGJBaJ_n-14" value="注册中心" style="rounded=0;whiteSpace=wrap;html=1;fillColor=#dae8fc;strokeColor=#6c8ebf;" parent="1" vertex="1">
          <mxGeometry x="885" y="647" width="70" height="50" as="geometry" />
        </mxCell>
        <mxCell id="EJtgx4ozu5CaRGJBaJ_n-15" value="HA缓存组件" style="rounded=0;whiteSpace=wrap;html=1;fillColor=#dae8fc;strokeColor=#6c8ebf;" parent="1" vertex="1">
          <mxGeometry x="885" y="822" width="70" height="50" as="geometry" />
        </mxCell>
        <mxCell id="EJtgx4ozu5CaRGJBaJ_n-16" value="配置中心" style="rounded=0;whiteSpace=wrap;html=1;fillColor=#dae8fc;strokeColor=#6c8ebf;" parent="1" vertex="1">
          <mxGeometry x="885" y="737" width="70" height="50" as="geometry" />
        </mxCell>
        <mxCell id="EJtgx4ozu5CaRGJBaJ_n-17" value="多维告警" style="rounded=0;whiteSpace=wrap;html=1;fillColor=#dae8fc;strokeColor=#6c8ebf;" parent="1" vertex="1">
          <mxGeometry x="885" y="909" width="70" height="50" as="geometry" />
        </mxCell>
        <mxCell id="EJtgx4ozu5CaRGJBaJ_n-18" value="greedy" style="rounded=0;whiteSpace=wrap;html=1;fillColor=#ffe6cc;strokeColor=#d79b00;" parent="1" vertex="1">
          <mxGeometry x="370" y="340" width="150" height="50" as="geometry" />
        </mxCell>
        <mxCell id="EJtgx4ozu5CaRGJBaJ_n-19" value="yummy" style="rounded=0;whiteSpace=wrap;html=1;fillColor=#ffe6cc;strokeColor=#d79b00;" parent="1" vertex="1">
          <mxGeometry x="200" y="340" width="150" height="50" as="geometry" />
        </mxCell>
        <mxCell id="y2V5eQRrKLhB8ouerc9a-15" value="" style="rounded=0;whiteSpace=wrap;html=1;" parent="1" vertex="1">
          <mxGeometry x="90" y="419" width="770" height="70" as="geometry" />
        </mxCell>
        <mxCell id="y2V5eQRrKLhB8ouerc9a-14" value="消息总线" style="rounded=0;whiteSpace=wrap;html=1;fillColor=#1ba1e2;strokeColor=#006EAF;fontColor=#ffffff;" parent="1" vertex="1">
          <mxGeometry x="440" y="434.5" width="100" height="37.5" as="geometry" />
        </mxCell>
        <mxCell id="y2V5eQRrKLhB8ouerc9a-18" value="消息层" style="text;html=1;strokeColor=none;fillColor=none;align=center;verticalAlign=middle;whiteSpace=wrap;rounded=0;" parent="1" vertex="1">
          <mxGeometry x="105" y="435.75" width="70" height="35" as="geometry" />
        </mxCell>
        <mxCell id="y2V5eQRrKLhB8ouerc9a-19" value="kafka" style="rounded=0;whiteSpace=wrap;html=1;fillColor=#1ba1e2;strokeColor=#006EAF;fontColor=#ffffff;" parent="1" vertex="1">
          <mxGeometry x="740" y="1194" width="100" height="37.5" as="geometry" />
        </mxCell>
        <mxCell id="snc-uxWqsaC4xuoeJqYB-3" value="" style="group" parent="1" vertex="1" connectable="0">
          <mxGeometry x="165" y="522" width="335" height="238" as="geometry" />
        </mxCell>
        <mxCell id="uNRUGT3ZcrBbDmXLUn96-2" value="" style="rounded=0;whiteSpace=wrap;html=1;fillColor=#ffe6cc;strokeColor=#d79b00;" parent="snc-uxWqsaC4xuoeJqYB-3" vertex="1">
          <mxGeometry width="335" height="238" as="geometry" />
        </mxCell>
        <mxCell id="y2V5eQRrKLhB8ouerc9a-23" value="" style="rounded=0;whiteSpace=wrap;html=1;fillColor=#d5e8d4;strokeColor=#82b366;" parent="snc-uxWqsaC4xuoeJqYB-3" vertex="1">
          <mxGeometry x="54.5" y="61.51694915254237" width="230.5" height="126.05932203389831" as="geometry" />
        </mxCell>
        <mxCell id="uNRUGT3ZcrBbDmXLUn96-3" value="&lt;span style=&quot;font-size: 18px;&quot;&gt;规则引擎&lt;/span&gt;" style="text;html=1;strokeColor=none;fillColor=none;align=center;verticalAlign=middle;whiteSpace=wrap;rounded=0;" parent="snc-uxWqsaC4xuoeJqYB-3" vertex="1">
          <mxGeometry x="5" y="6.050847457627119" width="120" height="30.25423728813559" as="geometry" />
        </mxCell>
        <mxCell id="GVJ0wXT0H-0ZE1gmcHWH-4" value="规则数据元" style="rounded=0;whiteSpace=wrap;html=1;fillColor=#b0e3e6;strokeColor=#0e8088;" parent="snc-uxWqsaC4xuoeJqYB-3" vertex="1">
          <mxGeometry x="71" y="83.70338983050847" width="90" height="35.29661016949152" as="geometry" />
        </mxCell>
        <mxCell id="GVJ0wXT0H-0ZE1gmcHWH-5" value="规则组装" style="rounded=0;whiteSpace=wrap;html=1;fillColor=#b0e3e6;strokeColor=#0e8088;" parent="snc-uxWqsaC4xuoeJqYB-3" vertex="1">
          <mxGeometry x="185" y="83.70338983050847" width="90" height="35.29661016949152" as="geometry" />
        </mxCell>
        <mxCell id="GVJ0wXT0H-0ZE1gmcHWH-6" value="规则执行" style="rounded=0;whiteSpace=wrap;html=1;fillColor=#b0e3e6;strokeColor=#0e8088;" parent="snc-uxWqsaC4xuoeJqYB-3" vertex="1">
          <mxGeometry x="71" y="131.6059322033898" width="90" height="35.29661016949152" as="geometry" />
        </mxCell>
        <mxCell id="GVJ0wXT0H-0ZE1gmcHWH-8" value="活动&amp;amp;规则管理" style="rounded=0;whiteSpace=wrap;html=1;fillColor=#b0e3e6;strokeColor=#0e8088;" parent="snc-uxWqsaC4xuoeJqYB-3" vertex="1">
          <mxGeometry x="185" y="131.6059322033898" width="90" height="35.29661016949152" as="geometry" />
        </mxCell>
        <mxCell id="snc-uxWqsaC4xuoeJqYB-14" value="" style="group;fillColor=#d5e8d4;strokeColor=#82b366;" parent="1" vertex="1" connectable="0">
          <mxGeometry x="520" y="522" width="320" height="238" as="geometry" />
        </mxCell>
        <mxCell id="uNRUGT3ZcrBbDmXLUn96-4" value="" style="rounded=0;whiteSpace=wrap;html=1;fillColor=#ffe6cc;strokeColor=#d79b00;" parent="snc-uxWqsaC4xuoeJqYB-14" vertex="1">
          <mxGeometry width="320" height="238" as="geometry" />
        </mxCell>
        <mxCell id="EJtgx4ozu5CaRGJBaJ_n-48" value="" style="rounded=0;whiteSpace=wrap;html=1;fillColor=#d5e8d4;strokeColor=#82b366;" parent="snc-uxWqsaC4xuoeJqYB-14" vertex="1">
          <mxGeometry x="9.846153846153847" y="27.890625" width="295.3846153846154" height="93.126796875" as="geometry" />
        </mxCell>
        <mxCell id="EJtgx4ozu5CaRGJBaJ_n-49" value="" style="rounded=0;whiteSpace=wrap;html=1;fillColor=#d5e8d4;strokeColor=#82b366;" parent="snc-uxWqsaC4xuoeJqYB-14" vertex="1">
          <mxGeometry x="12.307692307692308" y="139.453125" width="292.92307692307696" height="92.494609375" as="geometry" />
        </mxCell>
        <mxCell id="uNRUGT3ZcrBbDmXLUn96-6" value="&lt;font style=&quot;font-size: 18px;&quot;&gt;业务数据模块&lt;/font&gt;" style="text;html=1;strokeColor=none;fillColor=none;align=center;verticalAlign=middle;whiteSpace=wrap;rounded=0;" parent="snc-uxWqsaC4xuoeJqYB-14" vertex="1">
          <mxGeometry x="0.49230769230769234" y="-0.45696504237288094" width="118.15384615384616" height="30.25423728813559" as="geometry" />
        </mxCell>
        <mxCell id="snc-uxWqsaC4xuoeJqYB-18" value="业务基础数据" style="text;html=1;strokeColor=none;fillColor=none;align=center;verticalAlign=middle;whiteSpace=wrap;rounded=0;" parent="snc-uxWqsaC4xuoeJqYB-14" vertex="1">
          <mxGeometry x="9.846153846153847" y="27.892831038135594" width="98.46153846153847" height="30.25423728813559" as="geometry" />
        </mxCell>
        <mxCell id="snc-uxWqsaC4xuoeJqYB-19" value="主播数据" style="rounded=0;whiteSpace=wrap;html=1;fillColor=#b0e3e6;strokeColor=#0e8088;" parent="snc-uxWqsaC4xuoeJqYB-14" vertex="1">
          <mxGeometry x="204.31230769230768" y="64.911484375" width="78.52307692307693" height="33.385078125" as="geometry" />
        </mxCell>
        <mxCell id="snc-uxWqsaC4xuoeJqYB-31" value="用户画像" style="text;html=1;strokeColor=none;fillColor=none;align=center;verticalAlign=middle;whiteSpace=wrap;rounded=0;" parent="snc-uxWqsaC4xuoeJqYB-14" vertex="1">
          <mxGeometry y="141.18" width="98.46" height="28.82" as="geometry" />
        </mxCell>
        <mxCell id="snc-uxWqsaC4xuoeJqYB-32" value="" style="rounded=0;whiteSpace=wrap;html=1;fillColor=#647687;strokeColor=#0e8088;" parent="snc-uxWqsaC4xuoeJqYB-14" vertex="1">
          <mxGeometry x="30.27692307692308" y="170.33734375" width="68.18461538461538" height="34.19390625" as="geometry" />
        </mxCell>
        <mxCell id="snc-uxWqsaC4xuoeJqYB-33" value="" style="rounded=0;whiteSpace=wrap;html=1;fillColor=#647687;strokeColor=#0e8088;" parent="snc-uxWqsaC4xuoeJqYB-14" vertex="1">
          <mxGeometry x="115.6923076923077" y="171.434375" width="68.18461538461538" height="34.19390625" as="geometry" />
        </mxCell>
        <mxCell id="snc-uxWqsaC4xuoeJqYB-34" value="" style="rounded=0;whiteSpace=wrap;html=1;fillColor=#647687;strokeColor=#0e8088;" parent="snc-uxWqsaC4xuoeJqYB-14" vertex="1">
          <mxGeometry x="214.64615384615385" y="171.434375" width="68.18461538461538" height="34.19390625" as="geometry" />
        </mxCell>
        <mxCell id="sW2l-pxSZwtCEugyFTD0-1" value="业务数据" style="rounded=0;whiteSpace=wrap;html=1;fillColor=#b0e3e6;strokeColor=#0e8088;" parent="snc-uxWqsaC4xuoeJqYB-14" vertex="1">
          <mxGeometry x="60.001538461538466" y="63.0032865466102" width="88.61538461538461" height="35.29661016949152" as="geometry" />
        </mxCell>
        <mxCell id="snc-uxWqsaC4xuoeJqYB-17" value="" style="group" parent="1" vertex="1" connectable="0">
          <mxGeometry x="165" y="770" width="675" height="220" as="geometry" />
        </mxCell>
        <mxCell id="sW2l-pxSZwtCEugyFTD0-2" value="" style="group" parent="snc-uxWqsaC4xuoeJqYB-17" vertex="1" connectable="0">
          <mxGeometry width="675" height="220" as="geometry" />
        </mxCell>
        <mxCell id="GVJ0wXT0H-0ZE1gmcHWH-2" value="" style="rounded=0;whiteSpace=wrap;html=1;fillColor=#ffe6cc;strokeColor=#d79b00;" parent="sW2l-pxSZwtCEugyFTD0-2" vertex="1">
          <mxGeometry width="670" height="110" as="geometry" />
        </mxCell>
        <mxCell id="GVJ0wXT0H-0ZE1gmcHWH-3" value="&lt;span style=&quot;font-size: 18px;&quot;&gt;公共业务&lt;/span&gt;" style="text;html=1;strokeColor=none;fillColor=none;align=center;verticalAlign=middle;whiteSpace=wrap;rounded=0;" parent="sW2l-pxSZwtCEugyFTD0-2" vertex="1">
          <mxGeometry x="-25" y="-0.003333333333337407" width="145" height="27.5" as="geometry" />
        </mxCell>
        <mxCell id="_7niGNAHybga_dBvwEQ4-1" value="白名单" style="rounded=0;whiteSpace=wrap;html=1;fillColor=#ffe6cc;strokeColor=#d79b00;" vertex="1" parent="1">
          <mxGeometry x="700" y="337.5" width="150" height="50" as="geometry" />
        </mxCell>
        <mxCell id="_7niGNAHybga_dBvwEQ4-3" value="" style="rounded=0;whiteSpace=wrap;html=1;fillColor=#ffe6cc;strokeColor=#d79b00;" vertex="1" parent="1">
          <mxGeometry x="165" y="900" width="670" height="110" as="geometry" />
        </mxCell>
        <mxCell id="_7niGNAHybga_dBvwEQ4-4" value="&lt;span style=&quot;font-size: 18px;&quot;&gt;公共业务&lt;/span&gt;" style="text;html=1;strokeColor=none;fillColor=none;align=center;verticalAlign=middle;whiteSpace=wrap;rounded=0;" vertex="1" parent="1">
          <mxGeometry x="140" y="899.9966666666667" width="145" height="27.5" as="geometry" />
        </mxCell>
      </root>
    </mxGraphModel>
  </diagram>
</mxfile>
